<svg xmlns="http://www.w3.org/2000/svg" viewBox="0 0 1024 1024" role="img" aria-label="代码行为准则图标">
  <defs>
    <linearGradient id="background" x1="150" y1="110" x2="874" y2="914" gradientUnits="userSpaceOnUse">
      <stop offset="0" stop-color="#0f172a"/>
      <stop offset="1" stop-color="#1e293b"/>
    </linearGradient>
    <linearGradient id="shield" x1="318" y1="210" x2="706" y2="800" gradientUnits="userSpaceOnUse">
      <stop offset="0" stop-color="#38bdf8"/>
      <stop offset="1" stop-color="#0ea5e9"/>
    </linearGradient>
    <filter id="shadow" x="-20%" y="-20%" width="140%" height="150%">
      <feDropShadow dx="0" dy="28" stdDeviation="28" flood-color="#020617" flood-opacity="0.34"/>
    </filter>
  </defs>
  <rect width="1024" height="1024" rx="232" fill="url(#background)"/>
  <g filter="url(#shadow)">
    <path d="M512 156 794 266v190c0 183-112 315-282 384-170-69-282-201-282-384V266z" fill="url(#shield)"/>
    <path d="M512 203 746 294v162c0 151-88 259-234 326-146-67-234-175-234-326V294z" fill="none" stroke="#e0f2fe" stroke-width="22" opacity="0.62"/>
  </g>
  <path d="m424 352-112 160 112 160" fill="none" stroke="#f8fafc" stroke-width="62" stroke-linecap="round" stroke-linejoin="round"/>
  <path d="m600 352 112 160-112 160" fill="none" stroke="#f8fafc" stroke-width="62" stroke-linecap="round" stroke-linejoin="round"/>
  <path d="m566 314-108 396" fill="none" stroke="#0f172a" stroke-width="54" stroke-linecap="round"/>
</svg>
